<svg width="24" height="24" viewBox="0 0 29 29" fill="none" xmlns="http://www.w3.org/2000/svg">
<circle cx="14.5785" cy="14.5525" r="14.3251" fill="#DFD9D6"/>
<path fill-rule="evenodd" clip-rule="evenodd" d="M13.5129 6.48315C13.3748 6.48315 13.2629 6.59509 13.2629 6.73315V13.2369H6.75912C6.62106 13.2369 6.50912 13.3489 6.50912 13.4869V15.618C6.50912 15.7561 6.62106 15.868 6.75912 15.868H13.2629V22.3718C13.2629 22.5099 13.3748 22.6218 13.5129 22.6218H15.644C15.7821 22.6218 15.894 22.5099 15.894 22.3718V15.868H22.3978C22.5359 15.868 22.6478 15.7561 22.6478 15.618V13.4869C22.6478 13.3489 22.5359 13.2369 22.3978 13.2369H15.894V6.73315C15.894 6.59509 15.7821 6.48315 15.644 6.48315H13.5129Z" fill="black"/>
</svg>
